<svg width="40" height="40" viewBox="0 0 40 40" fill="none" xmlns="http://www.w3.org/2000/svg">
<path d="M22.3149 19.8561C25.6506 19.8561 28.3537 17.155 28.3537 13.8217C28.3537 10.4883 25.6506 7.81592 22.3149 7.81592C18.9791 7.81592 16.2761 10.5171 16.2761 13.8217C16.2761 17.155 18.9791 19.8561 22.3149 19.8561Z" fill="#E70A46"/>
<path d="M22.8037 31.408C22.1423 31.2356 21.4522 31.0345 20.7333 30.8333L13.3141 28.8506C9.60459 27.4713 8.45434 24.7989 8.97195 22.9598C9.31703 21.6667 10.8124 21.0057 12.8253 20.0862C12.8253 20.0862 13.4004 19.8276 14.0043 19.5402C12.8828 17.9023 12.2214 15.9483 12.2214 13.8218C12.2214 8.27586 16.7361 3.73563 22.3149 3.73563C24.299 3.73563 26.1682 4.31034 27.7498 5.31609C27.9798 4.13793 27.8936 2.67241 26.8008 1.17816C24.6441 0.431034 22.3724 0 19.9856 0C8.94319 0 0 8.96552 0 20C0 31.0345 8.94319 40 19.9856 40C22.8612 40 25.5643 39.3966 28.0373 38.3046C28.0661 38.2184 28.0949 38.1322 28.1236 38.046C29.0438 34.7126 27.2897 32.6437 22.8037 31.408Z" fill="#E70A46"/>
<path d="M27.8935 1.6377C30.2803 3.04574 31.6894 6.09172 31.0855 8.87907C31.9194 10.3446 32.4083 12.04 32.4083 13.8503C32.4083 19.4251 27.8935 23.9365 22.3148 23.9365C19.3242 23.9365 16.6499 22.6434 14.8095 20.5745C14.2631 21.0055 13.918 21.4365 13.7742 21.8963C13.2854 23.6492 14.7519 25.1434 18.1164 25.9193L21.5959 26.6952C29.6764 28.5342 33.2135 30.948 32.207 35.8331C36.923 32.1837 39.9999 26.4653 39.9999 20.0285C39.9999 11.7526 35.0251 4.68367 27.8935 1.6377Z" fill="#E70A46"/>
</svg>
