<svg width="33" height="32" viewBox="0 0 33 32" fill="none" xmlns="http://www.w3.org/2000/svg">
<path d="M16.5001 2.66675C9.15341 2.66675 3.16675 8.65341 3.16675 16.0001C3.16675 23.3467 9.15341 29.3334 16.5001 29.3334C23.8467 29.3334 29.8334 23.3467 29.8334 16.0001C29.8334 8.65341 23.8467 2.66675 16.5001 2.66675ZM22.8734 12.9334L15.3134 20.4934C15.1267 20.6801 14.8734 20.7867 14.6067 20.7867C14.3401 20.7867 14.0867 20.6801 13.9001 20.4934L10.1267 16.7201C9.74008 16.3334 9.74008 15.6934 10.1267 15.3067C10.5134 14.9201 11.1534 14.9201 11.5401 15.3067L14.6067 18.3734L21.4601 11.5201C21.8467 11.1334 22.4867 11.1334 22.8734 11.5201C23.2601 11.9067 23.2601 12.5334 22.8734 12.9334Z" fill="white"/>
</svg>
