<svg width="16" height="16" viewBox="0 0 16 16" fill="none" xmlns="http://www.w3.org/2000/svg">
<path d="M14.6667 12.6667V14.6667H1.33334V12.6667C1.33334 12.3 1.63334 12 2.00001 12H14C14.3667 12 14.6667 12.3 14.6667 12.6667Z" fill="#CA1043" stroke="#CA1043" stroke-width="1.5" stroke-miterlimit="10" stroke-linecap="round" stroke-linejoin="round"/>
<path d="M4.66668 7.33301H3.33334V11.9997H4.66668V7.33301Z" fill="#CA1043"/>
<path d="M7.33333 7.33301H6V11.9997H7.33333V7.33301Z" fill="#CA1043"/>
<path d="M10 7.33301H8.66669V11.9997H10V7.33301Z" fill="#CA1043"/>
<path d="M12.6666 7.33301H11.3333V11.9997H12.6666V7.33301Z" fill="#CA1043"/>
<path d="M15.3333 15.167H0.666656C0.393323 15.167 0.166656 14.9403 0.166656 14.667C0.166656 14.3937 0.393323 14.167 0.666656 14.167H15.3333C15.6067 14.167 15.8333 14.3937 15.8333 14.667C15.8333 14.9403 15.6067 15.167 15.3333 15.167Z" fill="#CA1043"/>
<path d="M14.2467 3.83355L8.24668 1.43355C8.11334 1.38022 7.88668 1.38022 7.75334 1.43355L1.75334 3.83355C1.52001 3.92689 1.33334 4.20022 1.33334 4.45355V6.66689C1.33334 7.03355 1.63334 7.33355 2.00001 7.33355H14C14.3667 7.33355 14.6667 7.03355 14.6667 6.66689V4.45355C14.6667 4.20022 14.48 3.92689 14.2467 3.83355ZM8.00001 5.66689C7.44668 5.66689 7.00001 5.22022 7.00001 4.66689C7.00001 4.11355 7.44668 3.66689 8.00001 3.66689C8.55334 3.66689 9.00001 4.11355 9.00001 4.66689C9.00001 5.22022 8.55334 5.66689 8.00001 5.66689Z" fill="#CA1043"/>
</svg>
