<svg width="16" height="16" viewBox="0 0 16 16" fill="none" xmlns="http://www.w3.org/2000/svg">
<path d="M11.3333 2.33301H4.66668C2.66668 2.33301 1.33334 3.33301 1.33334 5.66634V10.333C1.33334 12.6663 2.66668 13.6663 4.66668 13.6663H11.3333C13.3333 13.6663 14.6667 12.6663 14.6667 10.333V5.66634C14.6667 3.33301 13.3333 2.33301 11.3333 2.33301ZM11.6467 6.39301L9.56001 8.05967C9.12001 8.41301 8.56001 8.58634 8.00001 8.58634C7.44001 8.58634 6.87334 8.41301 6.44001 8.05967L4.35334 6.39301C4.14001 6.21967 4.10668 5.89967 4.27334 5.68634C4.44668 5.47301 4.76001 5.43301 4.97334 5.60634L7.06001 7.27301C7.56668 7.67967 8.42668 7.67967 8.93334 7.27301L11.02 5.60634C11.2333 5.43301 11.5533 5.46634 11.72 5.68634C11.8933 5.89967 11.86 6.21967 11.6467 6.39301Z" fill="#CA1043"/>
</svg>
