<svg width="20" height="20" viewBox="0 0 20 20" fill="none" xmlns="http://www.w3.org/2000/svg">
<path d="M7.44167 1.66699H4.18333C2.5 1.66699 1.66667 2.50033 1.66667 4.18366V7.45033C1.66667 9.16699 2.5 10.0003 4.18333 9.95866H7.45C9.16667 10.0003 10 9.16699 9.95833 7.44199V4.18366C10 2.50033 9.16667 1.66699 7.44167 1.66699ZM7.50833 8.13366C6.94167 8.13366 6.39167 7.91699 5.93333 7.53366C5.41667 7.90866 4.79167 8.13366 4.11667 8.13366C3.775 8.13366 3.49167 7.85033 3.49167 7.50866C3.49167 7.16699 3.775 6.88366 4.11667 6.88366C4.96667 6.88366 5.675 6.30033 5.93333 5.50033H4.11667C3.775 5.50033 3.49167 5.21699 3.49167 4.87533C3.49167 4.53366 3.775 4.25033 4.11667 4.25033H5.19167C5.225 3.93366 5.48333 3.68366 5.80833 3.68366C6.13333 3.68366 6.39167 3.93366 6.425 4.25033H6.64167C6.65 4.25033 6.65833 4.25033 6.65833 4.25033H6.675H7.5C7.84167 4.25033 8.125 4.53366 8.125 4.87533C8.125 5.21699 7.85 5.50033 7.5 5.50033H7.225C7.15 5.90033 6.99167 6.27533 6.78333 6.61699C7.00833 6.78366 7.25 6.88366 7.50833 6.88366C7.85 6.88366 8.13333 7.16699 8.13333 7.50866C8.13333 7.85033 7.85 8.13366 7.50833 8.13366Z" fill="#CA1043"/>
<path d="M7.5 18.9583C3.94167 18.9583 1.04167 16.0583 1.04167 12.5C1.04167 12.1583 1.325 11.875 1.66667 11.875C2.00833 11.875 2.29167 12.1583 2.29167 12.5C2.29167 14.9667 4.00833 17.0333 6.31667 17.575L6.09167 17.2C5.91667 16.9 6.00834 16.5167 6.30833 16.3417C6.6 16.1667 6.99167 16.2583 7.16667 16.5583L8.04167 18.0167C8.15833 18.2083 8.15833 18.45 8.05 18.6417C7.93333 18.8333 7.725 18.9583 7.5 18.9583Z" fill="#CA1043"/>
<path d="M18.3333 8.12533C17.9917 8.12533 17.7083 7.84199 17.7083 7.50033C17.7083 5.03366 15.9917 2.96699 13.6833 2.42533L13.9083 2.80033C14.0833 3.10033 13.9917 3.48366 13.6917 3.65866C13.4 3.83366 13.0083 3.74199 12.8333 3.44199L11.9583 1.98366C11.8417 1.79199 11.8417 1.55033 11.95 1.35866C12.0667 1.16699 12.275 1.04199 12.5 1.04199C16.0583 1.04199 18.9583 3.94199 18.9583 7.50033C18.9583 7.84199 18.675 8.12533 18.3333 8.12533Z" fill="#CA1043"/>
<path d="M14.1 9.875C11.7667 9.875 9.86667 11.7667 9.86667 14.1083C9.86667 16.4417 11.7583 18.3417 14.1 18.3417C16.4333 18.3417 18.3333 16.45 18.3333 14.1083C18.3333 11.7667 16.4417 9.875 14.1 9.875ZM16.1667 16.1167C15.8583 16.2667 15.4833 16.15 15.325 15.8333L15.1833 15.55H13.025L12.8833 15.8333C12.775 16.05 12.55 16.175 12.325 16.175C12.2333 16.175 12.1333 16.15 12.05 16.1083C11.7417 15.95 11.6167 15.575 11.7667 15.2667L13.55 11.7083C13.6583 11.5 13.875 11.3667 14.1083 11.3667C14.3417 11.3667 14.5583 11.5 14.6667 11.7167L16.45 15.275C16.6 15.5833 16.475 15.9583 16.1667 16.1167Z" fill="#CA1043"/>
<path d="M13.65 14.2999H14.5583L14.1 13.3916L13.65 14.2999Z" fill="#CA1043"/>
</svg>
