<svg width="20" height="20" viewBox="0 0 20 20" fill="none" xmlns="http://www.w3.org/2000/svg">
<path d="M16.1167 12.0753L15.2833 10.692C15.1083 10.3837 14.95 9.80033 14.95 9.45866V7.35033C14.95 5.39199 13.8 3.70033 12.1417 2.90866C11.7083 2.14199 10.9083 1.66699 9.99167 1.66699C9.08333 1.66699 8.26667 2.15866 7.83333 2.93366C6.20833 3.74199 5.08333 5.41699 5.08333 7.35033V9.45866C5.08333 9.80033 4.925 10.3837 4.75 10.6837L3.90833 12.0753C3.575 12.6337 3.5 13.2503 3.70833 13.817C3.90833 14.3753 4.38333 14.8087 5 15.017C6.61667 15.567 8.31667 15.8337 10.0167 15.8337C11.7167 15.8337 13.4167 15.567 15.0333 15.0253C15.6167 14.8337 16.0667 14.392 16.2833 13.817C16.5 13.242 16.4417 12.6087 16.1167 12.0753Z" fill="#CA1043"/>
<path d="M12.3583 16.6753C12.0083 17.642 11.0833 18.3337 10 18.3337C9.34167 18.3337 8.69167 18.067 8.23333 17.592C7.96667 17.342 7.76667 17.0087 7.65 16.667C7.75833 16.6837 7.86667 16.692 7.98333 16.7087C8.175 16.7337 8.375 16.7587 8.575 16.7753C9.05 16.817 9.53334 16.842 10.0167 16.842C10.4917 16.842 10.9667 16.817 11.4333 16.7753C11.6083 16.7587 11.7833 16.7503 11.95 16.7253C12.0833 16.7087 12.2167 16.692 12.3583 16.6753Z" fill="#CA1043"/>
</svg>
