<svg width="16" height="16" viewBox="0 0 16 16" fill="none" xmlns="http://www.w3.org/2000/svg">
<path d="M7.36668 9.96634L6.13334 11.1997C5.87334 11.4597 5.46001 11.4597 5.19334 11.2063C5.12001 11.133 5.04668 11.0663 4.97334 10.993C4.28668 10.2997 3.66668 9.57301 3.11334 8.81301C2.56668 8.05301 2.12668 7.29301 1.80668 6.53967C1.49334 5.77968 1.33334 5.05301 1.33334 4.35967C1.33334 3.90634 1.41334 3.47301 1.57334 3.07301C1.73334 2.66634 1.98668 2.29301 2.34001 1.95967C2.76668 1.53967 3.23334 1.33301 3.72668 1.33301C3.91334 1.33301 4.10001 1.37301 4.26668 1.45301C4.44001 1.53301 4.59334 1.65301 4.71334 1.82634L6.26001 4.00634C6.38001 4.17301 6.46668 4.32634 6.52668 4.47301C6.58668 4.61301 6.62001 4.75301 6.62001 4.87967C6.62001 5.03967 6.57334 5.19967 6.48001 5.35301C6.39334 5.50634 6.26668 5.66634 6.10668 5.82634L5.60001 6.35301C5.52668 6.42634 5.49334 6.51301 5.49334 6.61967C5.49334 6.67301 5.50001 6.71967 5.51334 6.77301C5.53334 6.82634 5.55334 6.86634 5.56668 6.90634C5.68668 7.12634 5.89334 7.41301 6.18668 7.75968C6.48668 8.10634 6.80668 8.45967 7.15334 8.81301C7.22001 8.87967 7.29334 8.94634 7.36001 9.01301C7.62668 9.27301 7.63334 9.69967 7.36668 9.96634Z" fill="#CA1043"/>
<path d="M14.6467 12.2204C14.6467 12.407 14.6134 12.6004 14.5467 12.787C14.5267 12.8404 14.5067 12.8937 14.48 12.947C14.3667 13.187 14.22 13.4137 14.0267 13.627C13.7 13.987 13.34 14.247 12.9334 14.4137C12.9267 14.4137 12.92 14.4204 12.9134 14.4204C12.52 14.5804 12.0934 14.667 11.6334 14.667C10.9534 14.667 10.2267 14.507 9.46002 14.1804C8.69336 13.8537 7.92669 13.4137 7.16669 12.8604C6.90669 12.667 6.64669 12.4737 6.40002 12.267L8.58002 10.087C8.76669 10.227 8.93336 10.3337 9.07336 10.407C9.10669 10.4204 9.14669 10.4404 9.19336 10.4604C9.24669 10.4804 9.30002 10.487 9.36002 10.487C9.47336 10.487 9.56002 10.447 9.63336 10.3737L10.14 9.87369C10.3067 9.70702 10.4667 9.58035 10.62 9.50035C10.7734 9.40702 10.9267 9.36035 11.0934 9.36035C11.22 9.36035 11.3534 9.38702 11.5 9.44702C11.6467 9.50702 11.8 9.59369 11.9667 9.70702L14.1734 11.2737C14.3467 11.3937 14.4667 11.5337 14.54 11.7004C14.6067 11.867 14.6467 12.0337 14.6467 12.2204Z" fill="#CA1043"/>
</svg>
