<svg width="16" height="16" viewBox="0 0 16 16" fill="none" xmlns="http://www.w3.org/2000/svg">
<path d="M10.7933 1.33301H5.20668C2.78001 1.33301 1.33334 2.77967 1.33334 5.20634V10.7863C1.33334 13.2197 2.78001 14.6663 5.20668 14.6663H10.7867C13.2133 14.6663 14.66 13.2197 14.66 10.793V5.20634C14.6667 2.77967 13.22 1.33301 10.7933 1.33301ZM12.9 5.89301C12.8733 5.95301 12.84 6.00634 12.7933 6.05301L11.5933 7.25301C11.4933 7.35301 11.3667 7.39967 11.24 7.39967C11.1133 7.39967 10.9867 7.35301 10.8867 7.25301C10.6933 7.05967 10.6933 6.73967 10.8867 6.54634L11.2333 6.19967H11.1333C9.73334 6.19967 8.58668 7.33967 8.58668 8.73967V10.0463V11.493C8.58668 11.7663 8.36001 11.993 8.08668 11.993C7.81334 11.993 7.58668 11.7663 7.58668 11.493V10.0463V8.73967C7.58668 7.33967 6.44668 6.19967 5.04668 6.19967H4.76668L5.11334 6.54634C5.30668 6.73967 5.30668 7.05967 5.11334 7.25301C5.01334 7.35301 4.88668 7.39967 4.76001 7.39967C4.63334 7.39967 4.50668 7.35301 4.40668 7.25301L3.20668 6.05301C3.01334 5.85967 3.01334 5.53967 3.20668 5.34634L4.40668 4.14634C4.60001 3.95301 4.92001 3.95301 5.11334 4.14634C5.30668 4.33967 5.30668 4.65967 5.11334 4.85301L4.76668 5.19967H5.05334C6.35334 5.19967 7.48001 5.91301 8.09334 6.95967C8.70668 5.91301 9.83334 5.19967 11.14 5.19967H11.24L10.8933 4.85301C10.7 4.65967 10.7 4.33967 10.8933 4.14634C11.0867 3.95301 11.4067 3.95301 11.6 4.14634L12.8 5.34634C12.8467 5.39301 12.88 5.44634 12.9067 5.50634C12.9533 5.63301 12.9533 5.77301 12.9 5.89301Z" fill="#CA1043"/>
</svg>
