<svg width="16" height="16" viewBox="0 0 16 16" fill="none" xmlns="http://www.w3.org/2000/svg">
<path d="M13.7467 5.63366C13.0467 2.55366 10.36 1.16699 8 1.16699C8 1.16699 8 1.16699 7.99334 1.16699C5.64 1.16699 2.94667 2.54699 2.24667 5.62699C1.46667 9.06699 3.57334 11.9803 5.48 13.8137C6.18667 14.4937 7.09334 14.8337 8 14.8337C8.90667 14.8337 9.81334 14.4937 10.5133 13.8137C12.42 11.9803 14.5267 9.07366 13.7467 5.63366ZM8 8.97366C6.84 8.97366 5.9 8.03366 5.9 6.87366C5.9 5.71366 6.84 4.77366 8 4.77366C9.16 4.77366 10.1 5.71366 10.1 6.87366C10.1 8.03366 9.16 8.97366 8 8.97366Z" fill="#CA1043"/>
</svg>
